<?xml version="1.0" standalone="no"?>
<!DOCTYPE svg PUBLIC "-//W3C//DTD SVG 20010904//EN"
 "http://www.w3.org/TR/2001/REC-SVG-20010904/DTD/svg10.dtd">
<svg version="1.0" xmlns="http://www.w3.org/2000/svg"
 width="175.000000pt" height="175.000000pt" viewBox="0 0 175.000000 175.000000"
 preserveAspectRatio="xMidYMid meet">
<metadata>
Created by potrace 1.14, written by Peter Selinger 2001-2017
</metadata>
<g transform="translate(0.000000,175.000000) scale(0.100000,-0.100000)"
fill="#000000" stroke="none">
<path d="M264 1719 c-50 -14 -126 -70 -156 -114 -48 -71 -63 -191 -34 -271 8
-22 78 -172 156 -334 78 -162 200 -417 272 -567 135 -282 163 -325 238 -363
111 -56 254 -34 337 52 33 34 44 56 305 588 347 706 311 625 314 709 4 127
-51 226 -160 284 -41 22 -43 22 -641 24 -345 1 -613 -2 -631 -8z m1229 -47
c55 -18 108 -66 139 -125 16 -31 21 -60 21 -113 0 -80 19 -36 -218 -519 -87
-176 -200 -408 -252 -515 -109 -223 -126 -249 -190 -287 -126 -73 -290 -12
-353 131 -10 23 -55 118 -100 211 -45 94 -102 211 -125 260 -24 50 -73 153
-110 230 -209 436 -199 414 -199 490 0 82 18 126 75 185 66 68 63 67 699 67
479 0 572 -2 613 -15z"/>
<path d="M354 1439 c-2 -4 8 -20 24 -36 16 -18 94 -181 191 -399 91 -203 179
-401 197 -440 18 -40 47 -105 64 -145 18 -41 35 -77 39 -81 3 -4 35 66 70 155
34 89 76 193 91 232 16 38 27 71 25 73 -2 2 -18 -12 -35 -32 -35 -40 -59 -45
-82 -18 -8 9 -59 121 -113 247 -54 127 -106 248 -117 270 -10 22 -22 62 -25
88 -6 46 -5 48 26 60 31 11 42 27 19 27 -128 5 -371 3 -374 -1z"/>
<path d="M1050 1439 c-29 -5 -32 -7 -15 -13 62 -23 86 -42 106 -84 24 -49 35
-166 19 -207 -5 -14 -6 -27 -1 -29 4 -3 21 23 37 57 62 132 160 257 200 257 8
0 14 5 14 10 0 6 -17 10 -37 10 -21 1 -94 2 -163 3 -69 1 -141 -1 -160 -4z"/>
</g>
</svg>
